Coordinates
version=1
nRows=32
nColumns=12
inDegrees=yes

Units are S.I. units (second, meters, Newtons, ...)
Angles are in degrees

endheader
time	SC_y	SC_z	SC_x	AC_y	AC_z	AC_x	GH_y	GH_z	GH_yy	EL_x	PS_y
       0.0              -23.13          3.568          8.969           66.0         -4.739         -13.63          143.9          50.07          29.61          6.438          72.39
   0.03528              -23.13          3.569          8.974           66.0         -4.738         -13.63          143.8          50.07          29.62          6.438           72.4
   0.07056              -23.13           3.57           8.98          65.99         -4.737         -13.62          143.8          50.07          29.63          6.439          72.41
    0.1058              -23.12          3.571          8.986          65.99         -4.736         -13.62          143.8          50.07          29.64          6.439          72.42
    0.1411              -23.12          3.572          8.992          65.99         -4.735         -13.61          143.7          50.07          29.65           6.44          72.43
    0.1764              -23.12          3.573          8.999          65.99         -4.734         -13.61          143.7          50.07          29.66           6.44          72.44
    0.2117              -23.12          3.574          9.006          65.98         -4.733          -13.6          143.6          50.07          29.67          6.441          72.45
     0.247              -23.12          3.575          9.014          65.98         -4.731          -13.6          143.6          50.07          29.68          6.442          72.46
    0.2822              -23.12          3.576          9.022          65.98          -4.73         -13.59          143.5          50.07          29.69          6.442          72.47
    0.3175              -23.11          3.577          9.031          65.97         -4.729         -13.59          143.5          50.07           29.7          6.443          72.49
    0.3528              -23.11          3.578          9.041          65.97         -4.727         -13.58          143.4          50.07          29.72          6.444           72.5
    0.3881              -23.11           3.58          9.051          65.96         -4.725         -13.58          143.3          50.07          29.73          6.444          72.52
    0.4234               -23.1          3.581          9.062          65.96         -4.724         -13.57          143.3          50.07          29.75          6.445          72.54
    0.4586               -23.1          3.583          9.074          65.96         -4.722         -13.56          143.2          50.08          29.76          6.446          72.56
    0.4939               -23.1          3.585          9.087          65.95          -4.72         -13.55          143.1          50.08          29.78          6.447          72.58
    0.5292              -23.09          3.587          9.101          65.94         -4.717         -13.54          143.0          50.08           29.8          6.448           72.6
    0.5645              -23.09          3.589          9.116          65.94         -4.715         -13.53          142.9          50.08          29.82           6.45          72.62
    0.5997              -23.09          3.591          9.133          65.93         -4.712         -13.52          142.8          50.08          29.85          6.451          72.65
     0.635              -23.08          3.594          9.151          65.92         -4.709         -13.51          142.7          50.08          29.87          6.452          72.68
    0.6703              -23.08          3.597          9.171          65.92         -4.706          -13.5          142.5          50.08           29.9          6.454          72.71
    0.7056              -23.07            3.6          9.193          65.91         -4.702         -13.48          142.4          50.08          29.93          6.456          72.74
    0.7409              -23.06          3.603          9.217           65.9         -4.698         -13.47          142.2          50.08          29.97          6.458          72.78
    0.7761              -23.06          3.607          9.244          65.89         -4.694         -13.45          142.1          50.09          30.01           6.46          72.82
    0.8114              -23.05          3.611          9.273          65.87         -4.689         -13.43          141.9          50.09          30.05          6.462          72.87
    0.8467              -23.04          3.616          9.306          65.86         -4.684         -13.41          141.7          50.09           30.1          6.465          72.92
     0.882              -23.03          3.621          9.343          65.85         -4.678         -13.39          141.4          50.09          30.15          6.467          72.97
    0.9173              -23.02          3.627          9.384          65.83         -4.671         -13.36          141.2          50.09          30.21          6.471          73.04
    0.9525              -23.01          3.633           9.43          65.81         -4.664         -13.33          140.9           50.1          30.27          6.474          73.11
    0.9878               -23.0           3.64          9.482          65.79         -4.656          -13.3          140.5           50.1          30.35          6.478          73.19
     1.023              -22.98          3.649          9.541          65.76         -4.646         -13.26          140.1           50.1          30.43          6.483          73.28
     1.058              -22.96          3.658          9.608          65.74         -4.635         -13.21          139.7          50.11          30.53          6.488          73.39
     1.094              -22.94          3.669          9.686           65.7         -4.622         -13.16          139.2          50.11          30.64          6.494          73.51
